<svg width="24" height="24" viewBox="0 0 24 24" fill="none" xmlns="http://www.w3.org/2000/svg">
<g clip-path="url(#clip0_6_1851)">
<circle cx="12" cy="7.19048" r="4.19048" fill="#232C44"/>
<path d="M19.9612 16.8588C19.9353 16.4855 19.8829 16.0783 19.8058 15.6482C19.728 15.215 19.6278 14.8054 19.5078 14.431C19.3839 14.0441 19.2153 13.662 19.007 13.2958C18.7907 12.9158 18.5367 12.5849 18.2517 12.3125C17.9537 12.0276 17.5887 11.7986 17.1668 11.6315C16.7463 11.4653 16.2803 11.3811 15.7818 11.3811C15.586 11.3811 15.3967 11.4614 15.031 11.6992C14.806 11.8458 14.5428 12.0154 14.249 12.2029C13.9978 12.3628 13.6574 12.5126 13.2371 12.6483C12.827 12.7809 12.4106 12.8481 11.9996 12.8481C11.5886 12.8481 11.1723 12.7809 10.7617 12.6483C10.3418 12.5128 10.0015 12.363 9.75057 12.203C9.45955 12.0173 9.19619 11.8477 8.96779 11.699C8.60259 11.4612 8.41312 11.381 8.21735 11.381C7.71871 11.381 7.25285 11.4653 6.83249 11.6317C6.41081 11.7984 6.04576 12.0275 5.74743 12.3127C5.46255 12.5851 5.20841 12.9159 4.99245 13.2958C4.78424 13.662 4.61569 14.044 4.49161 14.4312C4.37178 14.8055 4.27156 15.215 4.19372 15.6482C4.11661 16.0777 4.06423 16.4851 4.03833 16.8593C4.01288 17.2259 4 17.6064 4 17.9907C4 18.9908 4.31823 19.8005 4.94577 20.3976C5.56556 20.9868 6.38565 21.2857 7.38292 21.2857H16.6171C17.6144 21.2857 18.4341 20.9869 19.0541 20.3976C19.6818 19.8009 20 18.9911 20 17.9905C19.9999 17.6045 19.9868 17.2237 19.9612 16.8588V16.8588Z" fill="#232C44"/>
</g>
<defs>
<clipPath id="clip0_6_1851">
<rect width="24" height="24" fill="white" transform="translate(24 24) rotate(180)"/>
</clipPath>
</defs>
</svg>
