<svg width="16" height="16" viewBox="0 0 16 16" fill="none" xmlns="http://www.w3.org/2000/svg">
<path fillRule="evenodd" clipRule="evenodd" d="M4.14035 4.81871C3.95322 4.63158 3.95322 4.32749 4.14035 4.14035C4.32749 3.95322 4.63158 3.95322 4.81871 4.14035L11.8596 11.1813C12.0468 11.3684 12.0468 11.6725 11.8596 11.8596C11.6725 12.0468 11.3684 12.0468 11.1813 11.8596L4.14035 4.81871Z" fill="#42454D"/>
<path fillRule="evenodd" clipRule="evenodd" d="M11.1813 4.14035C11.3684 3.95322 11.6725 3.95322 11.8596 4.14035C12.0468 4.32749 12.0468 4.63158 11.8596 4.81871L4.81871 11.8596C4.63158 12.0468 4.32749 12.0468 4.14035 11.8596C3.95322 11.6725 3.95322 11.3684 4.14035 11.1813L11.1813 4.14035Z" fill="#42454D"/>
</svg>
