<svg width="183" height="61" viewBox="0 0 183 61" fill="none" xmlns="http://www.w3.org/2000/svg">
<rect width="183" height="61" rx="30.5" fill="#232C44"/>
<path d="M0 31C0 18.8497 9.87777 9 22.0626 9H160.937C173.122 9 183 18.8497 183 31C183 43.1503 173.122 53 160.937 53H22.0626C9.87776 53 0 43.1503 0 31Z" fill="#232C44"/>
<path d="M54.5013 18C50.8349 18 50.3747 18.0154 48.9347 18.0785C47.4975 18.1419 46.5165 18.361 45.6581 18.6825C44.7702 19.0145 44.017 19.4587 43.2666 20.1816C42.5157 20.9041 42.0544 21.6294 41.7085 22.4842C41.3738 23.311 41.146 24.256 41.0813 25.6394C41.0169 27.0261 41 27.4694 41 31C41 34.5306 41.0163 34.9723 41.0816 36.359C41.1477 37.7429 41.3752 38.6876 41.7088 39.5142C42.0539 40.3692 42.5151 41.0945 43.2658 41.8171C44.0159 42.5402 44.7691 42.9855 45.6564 43.3175C46.5154 43.639 47.4967 43.8581 48.9336 43.9215C50.3736 43.9846 50.8334 44 54.4996 44C58.1663 44 58.625 43.9846 60.065 43.9215C61.5022 43.8581 62.4843 43.639 63.3433 43.3175C64.2309 42.9855 64.983 42.5402 65.7331 41.8171C66.484 41.0945 66.9453 40.3692 67.2912 39.5145C67.6231 38.6876 67.8509 37.7427 67.9184 36.3593C67.9831 34.9726 68 34.5306 68 31C68 27.4694 67.9831 27.0263 67.9184 25.6397C67.8509 24.2557 67.6231 23.311 67.2912 22.4845C66.9453 21.6294 66.484 20.9041 65.7331 20.1816C64.9822 19.4584 64.2312 19.0143 63.3425 18.6825C62.4818 18.361 61.5002 18.1419 60.063 18.0785C58.623 18.0154 58.1646 18 54.497 18H54.5013ZM53.2902 20.3427C53.6496 20.3422 54.0507 20.3427 54.5013 20.3427C58.1058 20.3427 58.533 20.3552 59.9564 20.4175C61.2727 20.4754 61.9871 20.6872 62.463 20.8651C63.093 21.1008 63.5421 21.3824 64.0144 21.8374C64.4869 22.2924 64.7794 22.7258 65.0246 23.3324C65.2094 23.7901 65.4296 24.4781 65.4895 25.7456C65.5542 27.116 65.5683 27.5276 65.5683 30.997C65.5683 34.4664 65.5542 34.8781 65.4895 36.2485C65.4293 37.516 65.2094 38.2039 65.0246 38.6616C64.7799 39.2683 64.4869 39.7003 64.0144 40.155C63.5419 40.61 63.0933 40.8916 62.463 41.1273C61.9877 41.306 61.2727 41.5173 59.9564 41.5752C58.5333 41.6375 58.1058 41.6511 54.5013 41.6511C50.8964 41.6511 50.4692 41.6375 49.0461 41.5752C47.7298 41.5167 47.0154 41.3049 46.5393 41.127C45.9093 40.8914 45.4593 40.6097 44.9868 40.1547C44.5143 39.6997 44.2218 39.2675 43.9765 38.6605C43.7917 38.2028 43.5715 37.5149 43.5116 36.2474C43.4469 34.877 43.434 34.4653 43.434 30.9938C43.434 27.5222 43.4469 27.1127 43.5116 25.7423C43.5718 24.4748 43.7917 23.7869 43.9765 23.3286C44.2212 22.722 44.5143 22.2886 44.9868 21.8336C45.4593 21.3786 45.9093 21.097 46.5393 20.8608C47.0152 20.6821 47.7298 20.4708 49.0461 20.4126C50.2915 20.3584 50.7741 20.3422 53.2902 20.3395V20.3427ZM61.7075 22.5013C60.8131 22.5013 60.0875 23.1992 60.0875 24.0607C60.0875 24.922 60.8131 25.6207 61.7075 25.6207C62.6019 25.6207 63.3275 24.922 63.3275 24.0607C63.3275 23.1995 62.6019 22.5007 61.7075 22.5007V22.5013ZM54.5013 24.324C50.6726 24.324 47.5684 27.3131 47.5684 31C47.5684 34.6869 50.6726 37.6747 54.5013 37.6747C58.33 37.6747 61.433 34.6869 61.433 31C61.433 27.3131 58.3297 24.324 54.501 24.324H54.5013ZM54.5013 26.6667C56.9864 26.6667 59.0013 28.6066 59.0013 31C59.0013 33.3931 56.9864 35.3333 54.5013 35.3333C52.0158 35.3333 50.0012 33.3931 50.0012 31C50.0012 28.6066 52.0158 26.6667 54.5013 26.6667V26.6667Z" fill="url(#paint0_radial_149_5797)"/>
<path d="M54.5013 18C50.8349 18 50.3747 18.0154 48.9347 18.0785C47.4975 18.1419 46.5165 18.361 45.6581 18.6825C44.7702 19.0145 44.017 19.4587 43.2666 20.1816C42.5157 20.9041 42.0544 21.6294 41.7085 22.4842C41.3738 23.311 41.146 24.256 41.0813 25.6394C41.0169 27.0261 41 27.4694 41 31C41 34.5306 41.0163 34.9723 41.0816 36.359C41.1477 37.7429 41.3752 38.6876 41.7088 39.5142C42.0539 40.3692 42.5151 41.0945 43.2658 41.8171C44.0159 42.5402 44.7691 42.9855 45.6564 43.3175C46.5154 43.639 47.4967 43.8581 48.9336 43.9215C50.3736 43.9846 50.8334 44 54.4996 44C58.1663 44 58.625 43.9846 60.065 43.9215C61.5022 43.8581 62.4843 43.639 63.3433 43.3175C64.2309 42.9855 64.983 42.5402 65.7331 41.8171C66.484 41.0945 66.9453 40.3692 67.2912 39.5145C67.6231 38.6876 67.8509 37.7427 67.9184 36.3593C67.9831 34.9726 68 34.5306 68 31C68 27.4694 67.9831 27.0263 67.9184 25.6397C67.8509 24.2557 67.6231 23.311 67.2912 22.4845C66.9453 21.6294 66.484 20.9041 65.7331 20.1816C64.9822 19.4584 64.2312 19.0143 63.3425 18.6825C62.4818 18.361 61.5002 18.1419 60.063 18.0785C58.623 18.0154 58.1646 18 54.497 18H54.5013ZM53.2902 20.3427C53.6496 20.3422 54.0507 20.3427 54.5013 20.3427C58.1058 20.3427 58.533 20.3552 59.9564 20.4175C61.2727 20.4754 61.9871 20.6872 62.463 20.8651C63.093 21.1008 63.5421 21.3824 64.0144 21.8374C64.4869 22.2924 64.7794 22.7258 65.0246 23.3324C65.2094 23.7901 65.4296 24.4781 65.4895 25.7456C65.5542 27.116 65.5683 27.5276 65.5683 30.997C65.5683 34.4664 65.5542 34.8781 65.4895 36.2485C65.4293 37.516 65.2094 38.2039 65.0246 38.6616C64.7799 39.2683 64.4869 39.7003 64.0144 40.155C63.5419 40.61 63.0933 40.8916 62.463 41.1273C61.9877 41.306 61.2727 41.5173 59.9564 41.5752C58.5333 41.6375 58.1058 41.6511 54.5013 41.6511C50.8964 41.6511 50.4692 41.6375 49.0461 41.5752C47.7298 41.5167 47.0154 41.3049 46.5393 41.127C45.9093 40.8914 45.4593 40.6097 44.9868 40.1547C44.5143 39.6997 44.2218 39.2675 43.9765 38.6605C43.7917 38.2028 43.5715 37.5149 43.5116 36.2474C43.4469 34.877 43.434 34.4653 43.434 30.9938C43.434 27.5222 43.4469 27.1127 43.5116 25.7423C43.5718 24.4748 43.7917 23.7869 43.9765 23.3286C44.2212 22.722 44.5143 22.2886 44.9868 21.8336C45.4593 21.3786 45.9093 21.097 46.5393 20.8608C47.0152 20.6821 47.7298 20.4708 49.0461 20.4126C50.2915 20.3584 50.7741 20.3422 53.2902 20.3395V20.3427ZM61.7075 22.5013C60.8131 22.5013 60.0875 23.1992 60.0875 24.0607C60.0875 24.922 60.8131 25.6207 61.7075 25.6207C62.6019 25.6207 63.3275 24.922 63.3275 24.0607C63.3275 23.1995 62.6019 22.5007 61.7075 22.5007V22.5013ZM54.5013 24.324C50.6726 24.324 47.5684 27.3131 47.5684 31C47.5684 34.6869 50.6726 37.6747 54.5013 37.6747C58.33 37.6747 61.433 34.6869 61.433 31C61.433 27.3131 58.3297 24.324 54.501 24.324H54.5013ZM54.5013 26.6667C56.9864 26.6667 59.0013 28.6066 59.0013 31C59.0013 33.3931 56.9864 35.3333 54.5013 35.3333C52.0158 35.3333 50.0012 33.3931 50.0012 31C50.0012 28.6066 52.0158 26.6667 54.5013 26.6667V26.6667Z" fill="url(#paint1_radial_149_5797)"/>
<path d="M76 18.1566H80.2945V19.2042H77.1057V21.221H79.9786V22.2587H77.1057V25.1664H76V18.1566Z" fill="white"/>
<path d="M83.3494 25.3231C82.8426 25.3231 82.3885 25.2089 81.987 24.9804C81.5855 24.7455 81.2729 24.4256 81.0491 24.021C80.8253 23.6163 80.7135 23.166 80.7135 22.6699C80.7135 22.1739 80.8253 21.7235 81.0491 21.3189C81.2729 20.9142 81.5855 20.5977 81.987 20.3692C82.3885 20.1343 82.8426 20.0168 83.3494 20.0168C83.8562 20.0168 84.3103 20.1343 84.7118 20.3692C85.1133 20.6042 85.4259 20.924 85.6497 21.3287C85.8734 21.7333 85.9853 22.1804 85.9853 22.6699C85.9853 23.166 85.8734 23.6163 85.6497 24.021C85.4259 24.4256 85.1133 24.7455 84.7118 24.9804C84.3103 25.2089 83.8562 25.3231 83.3494 25.3231ZM83.3494 24.3343C83.6258 24.3343 83.8825 24.269 84.1194 24.1385C84.3564 24.0014 84.544 23.8089 84.6822 23.5608C84.827 23.3063 84.8994 23.0093 84.8994 22.6699C84.8994 22.3305 84.827 22.0368 84.6822 21.7888C84.544 21.5408 84.3564 21.3515 84.1194 21.221C83.8825 21.0839 83.6258 21.0154 83.3494 21.0154C83.073 21.0154 82.8163 21.0839 82.5793 21.221C82.3424 21.3515 82.1515 21.5408 82.0067 21.7888C81.8685 22.0368 81.7994 22.3305 81.7994 22.6699C81.7994 23.0093 81.8685 23.3063 82.0067 23.5608C82.1515 23.8089 82.3424 24.0014 82.5793 24.1385C82.8163 24.269 83.073 24.3343 83.3494 24.3343Z" fill="white"/>
<path d="M86.9384 18.1566H88.0244V25.1664H86.9384V18.1566Z" fill="white"/>
<path d="M89.3004 18.1566H90.3864V25.1664H89.3004V18.1566Z" fill="white"/>
<path d="M93.9738 25.3231C93.467 25.3231 93.0129 25.2089 92.6114 24.9804C92.2099 24.7455 91.8973 24.4256 91.6735 24.021C91.4498 23.6163 91.3379 23.166 91.3379 22.6699C91.3379 22.1739 91.4498 21.7235 91.6735 21.3189C91.8973 20.9142 92.2099 20.5977 92.6114 20.3692C93.0129 20.1343 93.467 20.0168 93.9738 20.0168C94.4806 20.0168 94.9347 20.1343 95.3362 20.3692C95.7377 20.6042 96.0503 20.924 96.2741 21.3287C96.4978 21.7333 96.6097 22.1804 96.6097 22.6699C96.6097 23.166 96.4978 23.6163 96.2741 24.021C96.0503 24.4256 95.7377 24.7455 95.3362 24.9804C94.9347 25.2089 94.4806 25.3231 93.9738 25.3231ZM93.9738 24.3343C94.2502 24.3343 94.5069 24.269 94.7438 24.1385C94.9808 24.0014 95.1684 23.8089 95.3066 23.5608C95.4514 23.3063 95.5238 23.0093 95.5238 22.6699C95.5238 22.3305 95.4514 22.0368 95.3066 21.7888C95.1684 21.5408 94.9808 21.3515 94.7438 21.221C94.5069 21.0839 94.2502 21.0154 93.9738 21.0154C93.6974 21.0154 93.4407 21.0839 93.2037 21.221C92.9668 21.3515 92.7759 21.5408 92.6311 21.7888C92.4929 22.0368 92.4238 22.3305 92.4238 22.6699C92.4238 23.0093 92.4929 23.3063 92.6311 23.5608C92.7759 23.8089 92.9668 24.0014 93.2037 24.1385C93.4407 24.269 93.6974 24.3343 93.9738 24.3343Z" fill="white"/>
<path d="M96.9519 20.1734H98.1267L99.1435 23.7469H99.183L100.318 20.1734H101.434L102.559 23.7469H102.599L103.616 20.1734H104.771L103.162 25.1664H102.016L100.861 21.5832H100.832L99.6865 25.1664H98.5611L96.9519 20.1734Z" fill="white"/>
<path d="M107.96 18.1566H109.066V21.4853H109.125L111.988 18.1566H113.36V18.2154L110.774 21.172L113.587 25.1077V25.1664H112.235L110.023 22.0238L109.066 23.1203V25.1664H107.96V18.1566Z" fill="white"/>
<path d="M115.764 25.3231C115.402 25.3231 115.079 25.2545 114.796 25.1175C114.513 24.9739 114.293 24.7748 114.135 24.5203C113.977 24.2592 113.898 23.9655 113.898 23.6392C113.898 23.1235 114.092 22.7156 114.48 22.4154C114.875 22.1152 115.372 21.965 115.971 21.965C116.267 21.965 116.534 21.9944 116.77 22.0531C117.007 22.1054 117.195 22.1641 117.333 22.2294V21.9748C117.333 21.6681 117.218 21.42 116.988 21.2308C116.757 21.035 116.461 20.9371 116.099 20.9371C115.842 20.9371 115.599 20.9925 115.369 21.1035C115.145 21.2145 114.964 21.3678 114.826 21.5636L114.065 20.986C114.289 20.6793 114.579 20.441 114.934 20.2713C115.29 20.1016 115.685 20.0168 116.119 20.0168C116.849 20.0168 117.412 20.1963 117.807 20.5552C118.202 20.9077 118.399 21.407 118.399 22.0531V25.1664H117.333V24.5692H117.284C117.139 24.7846 116.935 24.9641 116.672 25.1077C116.409 25.2513 116.106 25.3231 115.764 25.3231ZM115.951 24.4322C116.214 24.4322 116.451 24.3702 116.662 24.2462C116.873 24.1221 117.037 23.9557 117.156 23.7469C117.274 23.538 117.333 23.3128 117.333 23.0713C117.182 22.9865 117.004 22.9179 116.8 22.8657C116.603 22.8135 116.395 22.7874 116.178 22.7874C115.77 22.7874 115.471 22.869 115.28 23.0322C115.089 23.1888 114.993 23.3944 114.993 23.649C114.993 23.8774 115.082 24.0667 115.26 24.2168C115.438 24.3604 115.668 24.4322 115.951 24.4322Z" fill="white"/>
<path d="M119.583 20.1734H120.62V20.8294H120.669C120.82 20.5879 121.034 20.3921 121.311 20.242C121.587 20.0918 121.883 20.0168 122.199 20.0168C122.561 20.0168 122.877 20.1016 123.147 20.2713C123.417 20.4345 123.611 20.6531 123.729 20.9273C123.9 20.6531 124.127 20.4345 124.411 20.2713C124.7 20.1016 125.039 20.0168 125.427 20.0168C126.007 20.0168 126.444 20.193 126.74 20.5455C127.043 20.8914 127.195 21.3646 127.195 21.965V25.1664H126.109V22.151C126.109 21.3939 125.783 21.0154 125.131 21.0154C124.782 21.0154 124.496 21.1557 124.272 21.4364C124.049 21.717 123.937 22.0629 123.937 22.4741V25.1664H122.851V22.151C122.851 21.3939 122.515 21.0154 121.844 21.0154C121.501 21.0154 121.218 21.1557 120.995 21.4364C120.777 21.717 120.669 22.0629 120.669 22.4741V25.1664H119.583V20.1734Z" fill="white"/>
<path d="M129.055 19.449C128.851 19.449 128.677 19.3804 128.532 19.2434C128.394 19.0998 128.325 18.9268 128.325 18.7245C128.325 18.5221 128.394 18.3524 128.532 18.2154C128.677 18.0718 128.851 18 129.055 18C129.259 18 129.43 18.0718 129.569 18.2154C129.713 18.3524 129.786 18.5221 129.786 18.7245C129.786 18.9268 129.713 19.0998 129.569 19.2434C129.43 19.3804 129.259 19.449 129.055 19.449ZM128.512 20.1734H129.598V25.1664H128.512V20.1734Z" fill="white"/>
<path d="M76.6072 30.0322H78.5421V35.8573H78.6458L83.6561 30.0322H86.0575V30.135L81.531 35.3091L86.4549 42.1965V42.2993H84.088L80.218 36.7997L78.5421 38.7185V42.2993H76.6072V30.0322Z" fill="white"/>
<path d="M91.3558 42.5734C90.492 42.5734 89.7145 42.3735 89.0234 41.9738C88.3439 41.574 87.8083 41.0258 87.4167 40.329C87.0366 39.6209 86.8466 38.827 86.8466 37.9476C86.8466 37.1138 87.0309 36.3428 87.3994 35.6346C87.7795 34.915 88.3036 34.3439 88.9716 33.9213C89.6396 33.4987 90.3998 33.2874 91.2521 33.2874C92.139 33.2874 92.9049 33.4816 93.5499 33.8699C94.2065 34.2583 94.7017 34.7894 95.0357 35.4633C95.3813 36.1372 95.554 36.8967 95.554 37.742C95.554 37.9019 95.5368 38.1018 95.5022 38.3416H88.747C88.8161 39.1526 89.1041 39.7808 89.6108 40.2262C90.1292 40.6603 90.7281 40.8773 91.4076 40.8773C91.949 40.8773 92.4154 40.7573 92.807 40.5175C93.2102 40.2662 93.5327 39.9293 93.7745 39.5066L95.3813 40.2605C94.9666 40.9801 94.4253 41.5455 93.7573 41.9566C93.0892 42.3678 92.2887 42.5734 91.3558 42.5734ZM93.619 36.9024C93.596 36.5941 93.4981 36.2914 93.3253 35.9944C93.1526 35.686 92.8877 35.429 92.5306 35.2234C92.1851 35.0178 91.7589 34.915 91.2521 34.915C90.6417 34.915 90.1234 35.0978 89.6972 35.4633C89.2826 35.8174 88.9946 36.2971 88.8334 36.9024H93.619Z" fill="white"/>
<path d="M99.8111 41.8196L96.1485 33.5615H98.2735L100.761 39.5066H100.83L103.249 33.5615H105.34L99.8975 46H97.8934L99.8111 41.8196Z" fill="white"/>
<path d="M110.192 42.4364C109.8 42.4364 109.432 42.3735 109.086 42.2479C108.741 42.1223 108.458 41.9566 108.24 41.7511C107.744 41.2599 107.497 40.5917 107.497 39.7465V35.2234H105.959V33.5615H107.497V31.0944H109.397V33.5615H111.539V35.2234H109.397V39.3353C109.397 39.8036 109.489 40.1348 109.674 40.329C109.846 40.5575 110.146 40.6717 110.572 40.6717C110.768 40.6717 110.941 40.6488 111.09 40.6031C111.24 40.546 111.401 40.4604 111.574 40.3462V42.1794C111.194 42.3507 110.733 42.4364 110.192 42.4364Z" fill="white"/>
<path d="M115.942 42.5734C115.309 42.5734 114.744 42.4535 114.249 42.2136C113.754 41.9624 113.368 41.614 113.092 41.1685C112.815 40.7117 112.677 40.1977 112.677 39.6266C112.677 38.7242 113.017 38.0104 113.696 37.485C114.387 36.9596 115.257 36.6969 116.305 36.6969C116.823 36.6969 117.29 36.7483 117.704 36.8511C118.119 36.9424 118.447 37.0452 118.689 37.1594V36.714C118.689 36.1772 118.488 35.7431 118.084 35.4119C117.681 35.0692 117.163 34.8979 116.53 34.8979C116.08 34.8979 115.654 34.995 115.251 35.1892C114.86 35.3833 114.543 35.6517 114.301 35.9944L112.971 34.9836C113.362 34.4467 113.869 34.0298 114.491 33.7329C115.113 33.4359 115.804 33.2874 116.564 33.2874C117.843 33.2874 118.827 33.6015 119.518 34.2297C120.21 34.8465 120.555 35.7203 120.555 36.8511V42.2993H118.689V41.2542H118.603C118.349 41.6311 117.992 41.9452 117.532 42.1965C117.071 42.4478 116.541 42.5734 115.942 42.5734ZM116.27 41.0143C116.731 41.0143 117.146 40.9058 117.514 40.6888C117.883 40.4718 118.171 40.1805 118.378 39.815C118.586 39.4495 118.689 39.0555 118.689 38.6329C118.424 38.4844 118.113 38.3645 117.756 38.2731C117.411 38.1817 117.048 38.136 116.668 38.136C115.954 38.136 115.43 38.2788 115.096 38.5643C114.762 38.8385 114.595 39.1983 114.595 39.6437C114.595 40.0435 114.75 40.3747 115.061 40.6374C115.372 40.8887 115.775 41.0143 116.27 41.0143Z" fill="white"/>
<path d="M123.818 42.4021C123.45 42.4021 123.133 42.2765 122.868 42.0252C122.615 41.7625 122.488 41.4484 122.488 41.0829C122.488 40.7174 122.615 40.409 122.868 40.1577C123.133 39.9064 123.45 39.7808 123.818 39.7808C124.187 39.7808 124.498 39.9064 124.751 40.1577C125.016 40.409 125.149 40.7174 125.149 41.0829C125.149 41.4484 125.016 41.7625 124.751 42.0252C124.498 42.2765 124.187 42.4021 123.818 42.4021Z" fill="white"/>
<path d="M128.304 32.2937C127.947 32.2937 127.641 32.1738 127.388 31.9339C127.146 31.6826 127.025 31.38 127.025 31.0259C127.025 30.6718 127.146 30.3748 127.388 30.135C127.641 29.8837 127.947 29.758 128.304 29.758C128.661 29.758 128.96 29.8837 129.202 30.135C129.455 30.3748 129.582 30.6718 129.582 31.0259C129.582 31.38 129.455 31.6826 129.202 31.9339C128.96 32.1738 128.661 32.2937 128.304 32.2937ZM127.353 33.5615H129.254V42.2993H127.353V33.5615Z" fill="white"/>
<path d="M135.301 42.5734C134.506 42.5734 133.786 42.3735 133.141 41.9738C132.496 41.574 131.984 41.0258 131.604 40.329C131.235 39.6209 131.051 38.8213 131.051 37.9304C131.051 37.0395 131.235 36.2457 131.604 35.549C131.984 34.8408 132.496 34.2868 133.141 33.8871C133.786 33.4873 134.506 33.2874 135.301 33.2874C135.923 33.2874 136.481 33.4245 136.977 33.6986C137.472 33.9727 137.846 34.3097 138.1 34.7094H138.186L138.1 33.4759V30.0322H140V42.2993H138.186V41.1685H138.1C137.846 41.5569 137.472 41.8881 136.977 42.1622C136.481 42.4364 135.923 42.5734 135.301 42.5734ZM135.577 40.843C136.038 40.843 136.464 40.7231 136.856 40.4832C137.259 40.2434 137.581 39.9007 137.823 39.4552C138.065 39.0098 138.186 38.5015 138.186 37.9304C138.186 37.3593 138.065 36.8568 137.823 36.4227C137.581 35.9773 137.259 35.6346 136.856 35.3948C136.464 35.1549 136.038 35.035 135.577 35.035C135.116 35.035 134.685 35.1549 134.281 35.3948C133.878 35.6346 133.556 35.9773 133.314 36.4227C133.072 36.8568 132.951 37.3593 132.951 37.9304C132.951 38.5015 133.072 39.0098 133.314 39.4552C133.556 39.9007 133.878 40.2434 134.281 40.4832C134.685 40.7231 135.116 40.843 135.577 40.843Z" fill="white"/>
<defs>
<radialGradient id="paint0_radial_149_5797" cx="0" cy="0" r="1" gradientUnits="userSpaceOnUse" gradientTransform="translate(48.1719 46.0025) rotate(-90) scale(25.7679 24.888)">
<stop stop-color="#FFDD55"/>
<stop offset="0.1" stop-color="#FFDD55"/>
<stop offset="0.5" stop-color="#FF543E"/>
<stop offset="1" stop-color="#C837AB"/>
</radialGradient>
<radialGradient id="paint1_radial_149_5797" cx="0" cy="0" r="1" gradientUnits="userSpaceOnUse" gradientTransform="translate(36.4774 19.873) rotate(78.2572) scale(11.5357 49.231)">
<stop stop-color="#3771C8"/>
<stop offset="0.128" stop-color="#3771C8"/>
<stop offset="1" stop-color="#6600FF" stop-opacity="0"/>
</radialGradient>
</defs>
</svg>
