<svg width="377" height="344" viewBox="0 0 377 344" fill="none" xmlns="http://www.w3.org/2000/svg">
<g filter="url(#filter0_d_6_1458)">
<path d="M289.787 258.222C299.823 261.477 325.852 258.785 349.678 221.977" stroke="#232C44" stroke-width="14.5435"/>
<rect width="32.4259" height="32.4259" rx="16.213" transform="matrix(0.839486 0.543381 0.543381 -0.839486 331.877 219.641)" fill="#232C44"/>
<path d="M78.7612 266.465C68.3168 268.105 42.9973 261.356 25.2747 221.244" stroke="#232C44" stroke-width="14.5435"/>
<rect width="32.4199" height="32.4199" rx="16.2099" transform="matrix(0.914697 -0.404141 -0.404141 -0.914697 13.1023 235.338)" fill="#232C44"/>
<rect x="228.795" y="302.231" width="14.5435" height="61.8099" fill="#232C44"/>
<rect width="14.5435" height="61.8099" transform="matrix(-1 0 0 1 126.536 302.231)" fill="#232C44"/>
<path d="M78.6187 27.2691C78.6187 12.2088 90.8274 0 105.888 0H278.97C294.03 0 306.239 12.2088 306.239 27.2691V292.052C306.239 307.112 294.03 319.321 278.97 319.321H105.888C90.8275 319.321 78.6187 307.112 78.6187 292.052V27.2691Z" fill="#232C44"/>
<path d="M62.1807 27.2691C62.1807 12.2088 74.3894 0 89.4497 0H262.532C277.592 0 289.801 12.2088 289.801 27.2691V292.052C289.801 307.112 277.592 319.321 262.532 319.321H89.4498C74.3895 319.321 62.1807 307.112 62.1807 292.052V27.2691Z" fill="#FEBB30"/>
<rect x="198.072" y="13.1799" width="49.2661" height="13.0892" rx="6.54458" fill="white"/>
<rect x="254.155" y="13.1799" width="13.0892" height="13.0892" rx="6.54458" fill="white"/>
<path d="M84.3876 217.141C93.3891 215.23 113.642 217.009 122.642 239.415" stroke="#232C44" stroke-width="11.8166"/>
<path d="M84.2686 237.97C95.5398 236.195 103.317 225.296 123.47 237.97" stroke="#232C44" stroke-width="11.8166"/>
<path d="M271.171 217.141C262.17 215.23 241.917 217.009 232.916 239.415" stroke="#232C44" stroke-width="11.8166"/>
<path d="M271.29 237.97C260.019 236.195 252.242 225.296 232.088 237.97" stroke="#232C44" stroke-width="11.8166"/>
<path fill-rule="evenodd" clip-rule="evenodd" d="M149.624 245.603C149.624 245.615 149.624 245.628 149.624 245.64C149.624 258.622 161.425 269.146 175.984 269.146C190.542 269.146 202.344 258.622 202.344 245.64C202.344 245.628 202.344 245.615 202.344 245.603H149.624Z" fill="#364263"/>
<path d="M181.994 299.156C181.994 299.156 183.912 298.705 188.51 295.856C193.136 293.008 194.49 292.641 202.529 290.356C210.569 288.071 212.741 287.507 213.22 288.1C213.7 288.664 218.411 298.367 218.524 307.759C217.931 315.77 215.985 322.229 214.433 326.996C214.151 327.87 213.249 328.35 212.374 328.124C207.861 326.94 195.082 323.555 192.995 322.314C190.428 320.819 184.025 316.926 182.699 313.598C181.683 312.188 181.768 311.116 181.768 311.116L181.994 299.156Z" fill="#364263"/>
<path d="M172.064 299.156C172.064 299.156 170.146 298.705 165.548 295.856C160.922 293.007 159.568 292.612 151.529 290.356C143.489 288.099 141.317 287.507 140.838 288.099C140.358 288.664 135.619 298.338 135.535 307.731C136.155 315.741 138.073 322.201 139.625 326.968C139.907 327.842 140.81 328.321 141.684 328.096C146.197 326.911 158.976 323.526 161.063 322.285C163.63 320.79 170.033 316.898 171.359 313.57C172.375 312.159 172.29 311.087 172.29 311.087L172.064 299.156Z" fill="#364263"/>
<path d="M181.966 304.29C189.13 307.392 198.044 306.377 204.391 301.836C197.085 304.12 189.102 304.092 181.824 301.723L181.712 304.036C181.683 303.979 181.627 303.951 181.599 303.895L181.401 308.097C188.707 314.641 198.749 318.477 208.51 317.8C198.439 316.644 188.848 311.764 181.966 304.29Z" fill="#232C44"/>
<path d="M172.093 304.29C164.928 307.392 156.014 306.377 149.667 301.836C156.973 304.12 164.956 304.092 172.234 301.723L172.346 304.036C172.375 303.979 172.431 303.951 172.459 303.895L172.657 308.097C165.351 314.641 155.309 318.477 145.549 317.8C155.619 316.644 165.21 311.764 172.093 304.29Z" fill="#232C44"/>
<path d="M182.473 300.623C182.389 300.341 182.332 300.059 182.22 299.805C182.163 299.664 182.135 299.523 182.078 299.41C182.05 299.325 182.022 299.241 181.966 299.156C181.909 299.015 181.825 298.93 181.684 298.846C181.458 298.733 181.204 298.733 180.95 298.761C179.624 298.846 178.214 299.156 177.001 299.128C175.788 299.184 174.378 298.846 173.052 298.761C172.798 298.733 172.544 298.733 172.318 298.846C172.177 298.93 172.093 299.015 172.036 299.156C172.008 299.241 171.98 299.325 171.923 299.41C171.867 299.551 171.811 299.664 171.782 299.805C171.698 300.087 171.613 300.369 171.529 300.623C171.049 302.456 171.049 304.374 171.275 306.236C171.388 307.167 171.557 308.097 171.726 309.028C171.867 309.649 171.839 310.551 172.262 311.087C172.516 311.426 173.024 311.369 173.362 311.228C174.519 310.805 175.76 310.58 176.973 310.58C178.186 310.58 179.427 310.805 180.583 311.228C180.922 311.369 181.43 311.426 181.684 311.087C182.107 310.58 182.107 309.677 182.22 309.028C182.417 308.097 182.586 307.167 182.671 306.236C182.953 304.374 182.953 302.456 182.473 300.623Z" fill="#232C44"/>
</g>
<defs>
<filter id="filter0_d_6_1458" x="4.80072" y="0" width="366.075" height="364.768" filterUnits="userSpaceOnUse" color-interpolation-filters="sRGB">
<feFlood flood-opacity="0" result="BackgroundImageFix"/>
<feColorMatrix in="SourceAlpha" type="matrix" values="0 0 0 0 0 0 0 0 0 0 0 0 0 0 0 0 0 0 127 0" result="hardAlpha"/>
<feOffset dy="0.363588"/>
<feGaussianBlur stdDeviation="0.181794"/>
<feColorMatrix type="matrix" values="0 0 0 0 0 0 0 0 0 0 0 0 0 0 0 0 0 0 0.25 0"/>
<feBlend mode="normal" in2="BackgroundImageFix" result="effect1_dropShadow_6_1458"/>
<feBlend mode="normal" in="SourceGraphic" in2="effect1_dropShadow_6_1458" result="shape"/>
</filter>
</defs>
</svg>
