<svg width="132" height="66" viewBox="0 0 132 66" fill="none" xmlns="http://www.w3.org/2000/svg">
<path d="M92.4377 50.3805C93.9212 50.7765 96.8881 53.1635 96.8881 59.544" stroke="#232C44" stroke-width="2.11635"/>
<rect x="94.5291" y="58.4215" width="4.71857" height="4.71857" rx="2.35929" fill="#232C44"/>
<path d="M57.9045 50.3751C56.4179 50.7711 53.4446 53.1585 53.4446 59.5398" stroke="#232C44" stroke-width="2.11635"/>
<rect x="50.9958" y="58.3796" width="4.71769" height="4.71769" rx="2.35885" fill="#232C44"/>
<rect x="81.6033" y="56.7953" width="2.11635" height="8.99449" fill="#232C44"/>
<path d="M81.6047 63.1454H85.5729C86.3034 63.1454 86.8956 63.7376 86.8956 64.4681V65.7908H81.6047V63.1454Z" fill="#232C44"/>
<rect width="2.11635" height="8.99449" transform="matrix(-1 0 0 1 66.7183 56.7953)" fill="#232C44"/>
<path d="M66.7241 63.1454H62.756C62.0254 63.1454 61.4332 63.7376 61.4332 64.4681V65.7908H66.7241V63.1454Z" fill="#232C44"/>
<path d="M59.75 16.7832C59.75 14.5917 61.5266 12.8151 63.7182 12.8151H88.9048C91.0964 12.8151 92.873 14.5917 92.873 16.7832V55.314C92.873 57.5056 91.0964 59.2822 88.9048 59.2822H63.7182C61.5266 59.2822 59.75 57.5056 59.75 55.314V16.7832Z" fill="#232C44"/>
<path d="M57.3577 16.7846C57.3577 14.5931 59.1343 12.8165 61.3258 12.8165H86.5125C88.704 12.8165 90.4806 14.5931 90.4806 16.7846V55.3154C90.4806 57.507 88.704 59.2836 86.5125 59.2836H61.3258C59.1343 59.2836 57.3577 57.507 57.3577 55.3154V16.7846Z" fill="#FEBB30"/>
<rect x="77.1326" y="14.7336" width="7.16914" height="1.90471" rx="0.952357" fill="white"/>
<rect x="85.2947" y="14.7336" width="1.90471" height="1.90471" rx="0.952357" fill="white"/>
<path fillRule="evenodd" clip-rule="evenodd" d="M70.2422 48.5542C70.2422 48.5562 70.2422 48.5582 70.2422 48.5603C70.2422 50.4494 71.9596 51.9808 74.0781 51.9808C76.1966 51.9808 77.914 50.4494 77.914 48.5603C77.914 48.5582 77.914 48.5562 77.9139 48.5542H70.2422Z" fill="#364263"/>
<circle cx="63.4356" cy="45.7318" r="2.824" fill="#232C44"/>
<circle cx="62.1336" cy="44.4155" r="0.462952" fill="white"/>
<circle cx="85.0894" cy="45.7311" r="2.824" fill="#232C44"/>
<circle cx="84.024" cy="44.4153" r="0.462952" fill="white"/>
<path d="M74.8053 56.3475C74.8053 56.3475 75.0844 56.2818 75.7535 55.8673C76.4267 55.4527 76.6237 55.3994 77.7936 55.0669C78.9635 54.7344 79.2796 54.6523 79.3494 54.7385C79.4191 54.8206 80.1046 56.2326 80.1211 57.5994C80.0349 58.7651 79.7516 59.705 79.5259 60.3987C79.4848 60.5259 79.3535 60.5957 79.2262 60.5628C78.5694 60.3904 76.7099 59.8979 76.4062 59.7173C76.0327 59.4998 75.1009 58.9333 74.9079 58.449C74.7602 58.2438 74.7725 58.0878 74.7725 58.0878L74.8053 56.3475Z" fill="#364263"/>
<path d="M73.3612 56.3506C73.3612 56.3506 73.082 56.2849 72.413 55.8704C71.7398 55.4558 71.5427 55.3984 70.3729 55.07C69.203 54.7416 68.8869 54.6554 68.8171 54.7416C68.7473 54.8237 68.0577 56.2316 68.0454 57.5984C68.1357 58.7641 68.4148 59.704 68.6406 60.3977C68.6817 60.5249 68.813 60.5947 68.9403 60.5618C69.597 60.3894 71.4565 59.8969 71.7603 59.7163C72.1338 59.4988 73.0656 58.9323 73.2585 58.448C73.4063 58.2428 73.394 58.0868 73.394 58.0868L73.3612 56.3506Z" fill="#364263"/>
<path d="M74.8018 57.0944C75.8445 57.5459 77.4257 56.2257 78.3492 55.5649C77.2861 55.8974 75.8403 57.0657 74.7813 56.7209L74.7649 57.0575C74.7608 57.0492 74.7526 57.0451 74.7485 57.0369L74.7197 57.6485C75.7829 58.6008 77.2442 59.159 78.6645 59.0605C77.199 58.8922 75.8034 58.1821 74.8018 57.0944Z" fill="#232C44"/>
<path d="M73.3651 57.0944C72.3225 57.5459 70.7413 56.2257 69.8177 55.5649C70.8808 55.8974 72.3266 57.0657 73.3856 56.7209L73.402 57.0575C73.4061 57.0492 73.4143 57.0451 73.4185 57.0369L73.4472 57.6485C72.384 58.6008 70.9227 59.159 69.5024 59.0605C70.9679 58.8922 72.3635 58.1821 73.3651 57.0944Z" fill="#232C44"/>
<path d="M74.8758 56.5607C74.8634 56.5197 74.8552 56.4786 74.8388 56.4417C74.8306 56.4212 74.8265 56.4006 74.8183 56.3842C74.8142 56.3719 74.8101 56.3596 74.8019 56.3473C74.7937 56.3268 74.7813 56.3144 74.7608 56.3021C74.728 56.2857 74.691 56.2857 74.6541 56.2898C74.4612 56.3021 74.2559 56.3473 74.0794 56.3432C73.9029 56.3514 73.6977 56.3021 73.5047 56.2898C73.4678 56.2857 73.4309 56.2857 73.398 56.3021C73.3775 56.3144 73.3652 56.3268 73.357 56.3473C73.3529 56.3596 73.3488 56.3719 73.3406 56.3842C73.3323 56.4047 73.3241 56.4212 73.32 56.4417C73.3077 56.4827 73.2954 56.5238 73.2831 56.5607C73.2133 56.8275 73.2133 57.1066 73.2461 57.3775C73.2626 57.513 73.2872 57.6484 73.3118 57.7839C73.3323 57.8742 73.3282 58.0055 73.3898 58.0835C73.4268 58.1327 73.5006 58.1245 73.5499 58.104C73.7182 58.0424 73.8988 58.0096 74.0753 58.0096C74.2518 58.0096 74.4324 58.0424 74.6007 58.104C74.65 58.1245 74.7239 58.1327 74.7608 58.0835C74.8224 58.0096 74.8224 57.8783 74.8388 57.7839C74.8675 57.6484 74.8922 57.513 74.9045 57.3775C74.9455 57.1066 74.9455 56.8275 74.8758 56.5607Z" fill="#232C44"/>
<rect x="37.2192" y="55.0866" width="2.56681" height="10.9089" fill="#232C44"/>
<path d="M37.2183 62.7865H42.031C42.917 62.7865 43.6353 63.5047 43.6353 64.3907V65.995H37.2183V62.7865Z" fill="#232C44"/>
<mask id="mask0_6_1899" style="mask-type:alpha" maskUnits="userSpaceOnUse" x="37" y="62" width="7" height="4">
<path d="M37.2183 62.7865H42.031C42.917 62.7865 43.6353 63.5047 43.6353 64.3907V65.995H37.2183V62.7865Z" fill="#232C44"/>
</mask>
<g mask="url(#mask0_6_1899)">
<path d="M41.1963 62.7125C41.0492 62.7313 40.7551 62.8457 40.7551 63.1537C40.7551 63.4617 40.7551 63.6243 40.7551 63.6671" stroke="#FEBB30" stroke-width="0.176468"/>
<path d="M40.3945 62.7125C40.2475 62.7313 39.9534 62.8457 39.9534 63.1537C39.9534 63.4617 39.9534 63.6243 39.9534 63.6671" stroke="#FEBB30" stroke-width="0.176468"/>
<path d="M41.998 62.7283C41.851 62.747 41.5569 62.8615 41.5569 63.1695C41.5569 63.4775 41.5569 63.6401 41.5569 63.6828" stroke="#FEBB30" stroke-width="0.176468"/>
<rect width="1.78072" height="0.12834" transform="matrix(-1 0 0 1 41.6458 63.6583)" fill="#FEBB30"/>
</g>
<rect width="2.56681" height="10.9089" transform="matrix(-1 0 0 1 20.6133 55.0866)" fill="#232C44"/>
<path d="M20.6138 62.7865H15.801C14.915 62.7865 14.1967 63.5047 14.1967 64.3907V65.995H20.6138V62.7865Z" fill="#232C44"/>
<mask id="mask1_6_1899" style="mask-type:alpha" maskUnits="userSpaceOnUse" x="14" y="62" width="7" height="5">
<path d="M20.6138 62.7938H15.801C14.915 62.7938 14.1967 63.5121 14.1967 64.3981V66.0024H20.6138V62.7938Z" fill="#232C44"/>
</mask>
<g mask="url(#mask1_6_1899)">
<path d="M16.6357 62.7186C16.7828 62.7373 17.0769 62.8518 17.0769 63.1598C17.0769 63.4678 17.0769 63.6304 17.0769 63.6732" stroke="#FEBB30" stroke-width="0.176468"/>
<path d="M17.4375 62.7186C17.5846 62.7373 17.8787 62.8518 17.8787 63.1598C17.8787 63.4678 17.8787 63.6304 17.8787 63.6732" stroke="#FEBB30" stroke-width="0.176468"/>
<path d="M15.834 62.7344C15.981 62.7531 16.2752 62.8675 16.2752 63.1756C16.2752 63.4836 16.2752 63.6461 16.2752 63.6889" stroke="#FEBB30" stroke-width="0.176468"/>
<rect x="16.1863" y="63.6644" width="1.78072" height="0.12834" fill="#FEBB30"/>
</g>
<path d="M43.7512 55.3859C46.3831 55.1871 51.2517 55.0385 52.9136 60.0427" stroke="#232C44" stroke-width="1.92511"/>
<ellipse cx="53.1247" cy="60.8067" rx="1.64421" ry="1.651" transform="rotate(-21.2354 53.1247 60.8067)" fill="#232C44"/>
<path d="M8.87695 55.6696C6.35176 54.9016 1.36724 52.0491 1.63074 46.7828" stroke="#232C44" stroke-width="1.92511"/>
<ellipse cx="1.6451" cy="45.866" rx="1.64421" ry="1.651" transform="rotate(-180 1.6451 45.866)" fill="#232C44"/>
<rect x="7.90918" y="36.7383" width="38.8711" height="22.8286" rx="4.15502" fill="#232C44"/>
<rect x="10.1863" y="36.7383" width="38.8872" height="22.8286" rx="4.7486" fill="#FEBB30"/>
<rect width="15.7219" height="3.28842" rx="1.64421" transform="matrix(-1 0 0 1 28.6521 39.6898)" fill="white"/>
<circle r="1.651" transform="matrix(-1 0 0 1 32.0836 41.3408)" fill="white"/>
<circle cx="18.7977" cy="50.9922" r="1.97713" fill="#232C44"/>
<ellipse cx="19.6205" cy="50.5572" rx="0.339712" ry="0.428038" fill="white"/>
<circle cx="40.0399" cy="50.9922" r="1.97713" fill="#232C44"/>
<ellipse cx="40.7657" cy="50.5579" rx="0.339712" ry="0.428038" fill="white"/>
<rect x="13.4664" y="46.8371" width="11.5667" height="8.294" rx="2.12564" stroke="#232C44" stroke-width="1.07485"/>
<rect x="34.7076" y="46.8371" width="11.5667" height="8.294" rx="2.12564" stroke="#232C44" stroke-width="1.07485"/>
<rect x="9.15063" y="49.4597" width="4.40951" height="1.19773" transform="rotate(13.103 9.15063 49.4597)" fill="#232C44"/>
<path d="M49.0913 49.7238L45.9309 50.4594L46.178 51.5211L49.3384 50.7854L49.0913 49.7238Z" fill="#232C44"/>
<path fillRule="evenodd" clip-rule="evenodd" d="M27.657 54.8655C27.657 54.867 27.657 54.8684 27.657 54.8698C27.657 56.0786 28.7559 57.0586 30.1115 57.0586C31.4671 57.0586 32.566 56.0786 32.566 54.8698C32.566 54.8684 32.566 54.867 32.566 54.8655L27.657 54.8655Z" fill="#364263"/>
<path d="M116.025 7.98825C116.908 7.92699 117.682 7.63687 118.218 7.3827L116.025 7.98825C114.079 8.12335 111.606 7.14571 110.011 2.21624C109.915 4.22659 113.115 7.49209 111.743 9.17076L116.025 7.98825Z" fill="#232C44"/>
<path d="M113.21 8.07476C111.36 7.85914 111.086 2.92739 111.827 1.95426C111.368 5.70265 112.875 7.09456 114.111 7.00141L113.21 8.07476Z" fill="#232C44"/>
<path d="M123.402 47.4021C125.224 46.9158 128.869 43.9838 128.869 36.1468" stroke="#232C44" stroke-width="1.88262"/>
<path d="M120.68 10.9604C120.68 8.7324 118.874 6.92624 116.646 6.92624H106.157C103.929 6.92624 102.122 8.7324 102.122 10.9604V50.1323C102.122 52.3603 103.929 54.1665 106.157 54.1665H116.646C118.874 54.1665 120.68 52.3603 120.68 50.1323V10.9604Z" fill="#232C44"/>
<path d="M124.081 10.9607C124.081 8.73264 122.275 6.92648 120.047 6.92648H109.558C107.33 6.92648 105.524 8.73265 105.524 10.9607V50.1325C105.524 52.3605 107.33 54.1667 109.558 54.1667H120.047C122.275 54.1667 124.081 52.3605 124.081 50.1325V10.9607Z" fill="#FEBB30"/>
<rect width="7.28841" height="1.93641" rx="0.968203" transform="matrix(-1 0 0 1 117.506 9.21258)" fill="white"/>
<rect width="1.93641" height="1.93641" rx="0.968203" transform="matrix(-1 0 0 1 109.209 9.21258)" fill="white"/>
<path d="M103.225 44.8475C101.403 45.3338 97.3281 51.9314 97.3281 59.7685" stroke="#232C44" stroke-width="1.88262"/>
<rect x="131.598" y="37.5723" width="5.79577" height="5.79577" rx="2.68945" transform="rotate(180 131.598 37.5723)" fill="#232C44"/>
<path d="M100.344 59.9522C100.344 58.4669 99.1401 57.2627 97.6548 57.2627H97.2379C95.7526 57.2627 94.5485 58.4668 94.5485 59.9522V60.3691C94.5485 61.8544 95.7526 63.0585 97.2379 63.0585H97.6548C99.1401 63.0585 100.344 61.8544 100.344 60.3691V59.9522Z" fill="#232C44"/>
<rect width="2.15156" height="9.14414" transform="matrix(-1 0 0 1 109.854 54.1111)" fill="#232C44"/>
<path d="M109.854 62.986H105.82C105.078 62.986 104.476 63.588 104.476 64.3307V65.6754H109.854V62.986Z" fill="#232C44"/>
<rect x="117.035" y="54.1111" width="2.15156" height="9.14414" fill="#232C44"/>
<path d="M117.035 62.986H121.069C121.812 62.986 122.414 63.588 122.414 64.3307V65.6754H117.035V62.986Z" fill="#232C44"/>
<circle r="3.20225" transform="matrix(-1 0 0 1 119.036 36.081)" fill="#232C44"/>
<circle r="0.624117" transform="matrix(-1 0 0 1 118.513 37.3619)" fill="white"/>
<circle r="3.20225" transform="matrix(-1 0 0 1 110.456 38.5547)" fill="#232C44"/>
<circle r="0.624117" transform="matrix(-1 0 0 1 110.289 39.0073)" fill="white"/>
<circle r="0.127749" transform="matrix(-1 0 0 1 118.963 43.5217)" fill="#D6A541"/>
<circle r="0.127749" transform="matrix(-1 0 0 1 117.39 44.3684)" fill="#D6A541"/>
<circle r="0.127749" transform="matrix(-1 0 0 1 119.097 45.6736)" fill="#D6A541"/>
<circle r="0.127749" transform="matrix(-1 0 0 1 120.16 44.3684)" fill="#D6A541"/>
<circle r="0.0941308" transform="matrix(-1 0 0 1 118.929 44.5901)" fill="#D6A541"/>
<circle r="0.0941308" transform="matrix(-1 0 0 1 119.535 44.0524)" fill="#D6A541"/>
<circle r="0.0941308" transform="matrix(-1 0 0 1 119.198 44.9001)" fill="#D6A541"/>
<circle r="0.0941308" transform="matrix(-1 0 0 1 118.432 44.147)" fill="#D6A541"/>
<circle r="0.0941308" transform="matrix(-1 0 0 1 118.432 44.9947)" fill="#D6A541"/>
<path fillRule="evenodd" clip-rule="evenodd" d="M117.229 46.204C117.225 46.2307 117.22 46.2574 117.215 46.284C116.921 47.7977 114.88 48.6748 112.655 48.2431C110.43 47.8114 108.865 46.2344 109.159 44.7207C109.164 44.694 109.17 44.6676 109.176 44.6413L117.229 46.204Z" fill="#232C44"/>
<rect width="1.07579" height="2.0171" transform="matrix(-0.981416 -0.191894 -0.191894 0.981416 113.181 45.4176)" fill="#FFFBD4"/>
<rect width="1.07579" height="2.01709" transform="matrix(-0.981416 -0.191894 -0.191894 0.981416 111.861 45.1597)" fill="#FFFBD4"/>
</svg>
