<svg width="24" height="24" viewBox="0 0 24 24" fill="none" xmlns="http://www.w3.org/2000/svg">
<g clip-path="url(#clip0_149_6419)">
<g clip-path="url(#clip1_149_6419)">
<path d="M11.5254 10.4253C11.5254 9.96644 11.2131 9.56647 10.768 9.45516L3.61543 7.66666C2.98427 7.50884 2.37285 7.9862 2.37285 8.6368V18.2924C2.37285 18.7254 2.65145 19.1091 3.0631 19.2432L10.2156 21.5733C10.8619 21.7839 11.5254 21.3022 11.5254 20.6225V10.4253Z" fill="#A1A9B3"/>
<path fillRule="evenodd" clipRule="evenodd" d="M13.1969 9.45508C12.7517 9.56639 12.4395 9.96637 12.4395 10.4252V20.6225C12.4395 21.3021 13.1029 21.7838 13.7492 21.5733L20.9017 19.2432C21.3134 19.1091 21.592 18.7253 21.592 18.2924V8.63672C21.592 7.98613 20.9806 7.50877 20.3494 7.66659L13.1969 9.45508ZM15.6106 13.1493C15.4077 13.1956 15.2639 13.3761 15.2639 13.5842C15.2639 13.8707 15.5301 14.0829 15.8094 14.0191L18.9211 13.3078C19.124 13.2614 19.2679 13.0809 19.2679 12.8729C19.2679 12.5863 19.0016 12.3741 18.7223 12.438L15.6106 13.1493Z" fill="#A1A9B3"/>
<path d="M11.8451 2.88428C11.9348 2.85863 12.03 2.85863 12.1198 2.88428L21.1289 5.45831C21.6237 5.59968 21.6079 6.30627 21.1073 6.42547L12.0982 8.57049C12.0221 8.58862 11.9428 8.58862 11.8666 8.57049L2.85753 6.42547C2.35691 6.30627 2.34116 5.59968 2.83598 5.45831L11.8451 2.88428Z" fill="#A1A9B3"/>
</g>
</g>
<defs>
<clipPath id="clip0_149_6419">
<rect width="24" height="24" fill="white"/>
</clipPath>
<clipPath id="clip1_149_6419">
<rect width="24" height="24" fill="white"/>
</clipPath>
</defs>
</svg>
