<svg width="24" height="24" viewBox="0 0 24 24" fill="none" xmlns="http://www.w3.org/2000/svg">
<g clip-path="url(#clip0_149_6490)">
<g clip-path="url(#clip1_149_6490)">
<path fillRule="evenodd" clipRule="evenodd" d="M0.654884 9.94902C0.654884 11.553 1.07686 13.0584 1.81584 14.3603L0 17.5884L3.55386 16.5432C5.1468 18.0054 7.27111 18.898 9.6039 18.898C14.5463 18.898 18.5529 14.8914 18.5529 9.94902C18.5529 5.00661 14.5463 1 9.6039 1C4.6615 1 0.654884 5.00661 0.654884 9.94902ZM11.5451 5.51352C11.0036 5.07838 10.3075 4.89049 9.45699 4.94984C8.84492 4.99255 8.32879 5.15102 7.90861 5.42525C7.49579 5.69052 7.19246 6.03682 6.99862 6.46415C6.81274 6.89093 6.74563 7.3601 6.7973 7.87164L8.71697 7.73769C8.69644 7.44354 8.7598 7.20688 8.90705 7.0277C9.05372 6.84012 9.27013 6.73635 9.55629 6.71638C9.82655 6.69752 10.0431 6.76686 10.2058 6.92441C10.3686 7.08195 10.4602 7.3078 10.4807 7.60195C10.5101 8.02215 10.3673 8.32347 10.0526 8.50589C9.74577 8.68776 9.28633 8.80004 8.67426 8.84275L7.95886 8.89267L8.18209 11.2333L9.9706 11.1085L9.96424 10.1588C10.7665 10.0944 11.3948 9.82678 11.8492 9.35593C12.311 8.87612 12.5143 8.24122 12.4592 7.45123C12.3993 6.594 12.0947 5.9481 11.5451 5.51352ZM8.4237 14.1806C8.66947 14.3831 8.9712 14.4718 9.3289 14.4468C9.67866 14.4224 9.95719 14.2932 10.1645 14.0592C10.3792 13.8162 10.4751 13.5308 10.4522 13.203C10.4288 12.8669 10.2939 12.5934 10.0475 12.3825C9.80912 12.1712 9.51504 12.0777 9.16529 12.1021C8.80759 12.127 8.52139 12.261 8.30671 12.504C8.09997 12.7465 8.00833 13.0358 8.03179 13.3719C8.05466 13.6997 8.1853 13.9693 8.4237 14.1806Z" fill="#A1A9B3"/>
<path fillRule="evenodd" clipRule="evenodd" d="M10.0859 19.6715C11.4986 21.115 13.4686 22.0108 15.6479 22.0108C17.6765 22.0108 19.5237 21.2346 20.9089 19.963L23.9987 20.8718L22.42 18.0652C23.0627 16.933 23.4297 15.6239 23.4297 14.229C23.4297 10.9444 21.3947 8.13516 18.5167 6.99316C19.0392 8.12966 19.3306 9.39442 19.3306 10.7272C19.3306 15.6696 15.324 19.6763 10.3816 19.6763C10.2827 19.6763 10.1841 19.6746 10.0859 19.6715Z" fill="#A1A9B3"/>
</g>
</g>
<defs>
<clipPath id="clip0_149_6490">
<rect width="24" height="24" fill="white"/>
</clipPath>
<clipPath id="clip1_149_6490">
<rect width="24" height="24" fill="white"/>
</clipPath>
</defs>
</svg>
