<svg width="24" height="24" viewBox="0 0 24 24" fill="none" xmlns="http://www.w3.org/2000/svg">
<path d="M7.54688 12C8.59531 12 9.6008 11.5835 10.3422 10.8422C11.0835 10.1008 11.5 9.09531 11.5 8.04688C11.5 6.99844 11.0835 5.99295 10.3422 5.25159C9.6008 4.51024 8.59531 4.09375 7.54688 4.09375C6.49844 4.09375 5.49295 4.51024 4.75159 5.25159C4.01024 5.99295 3.59375 6.99844 3.59375 8.04688C3.59375 9.09531 4.01024 10.1008 4.75159 10.8422C5.49295 11.5835 6.49844 12 7.54688 12ZM16.5312 12C17.2937 12 18.025 11.6971 18.5642 11.1579C19.1033 10.6188 19.4062 9.8875 19.4062 9.125C19.4062 8.3625 19.1033 7.63123 18.5642 7.09207C18.025 6.5529 17.2937 6.25 16.5312 6.25C15.7688 6.25 15.0375 6.5529 14.4983 7.09207C13.9592 7.63123 13.6562 8.3625 13.6562 9.125C13.6562 9.8875 13.9592 10.6188 14.4983 11.1579C15.0375 11.6971 15.7688 12 16.5312 12ZM3.59375 13.4375C3.02188 13.4375 2.47343 13.6647 2.06905 14.0691C1.66468 14.4734 1.4375 15.0219 1.4375 15.5938V15.7016C1.4375 15.7016 1.4375 19.9062 7.54688 19.9062C13.6562 19.9062 13.6562 15.7016 13.6562 15.7016V15.5938C13.6562 15.0219 13.4291 14.4734 13.0247 14.0691C12.6203 13.6647 12.0719 13.4375 11.5 13.4375H3.59375ZM16.5312 18.4688C15.4847 18.4688 14.6567 18.3264 14.0005 18.1C14.311 17.5969 14.4893 17.1117 14.5899 16.72C14.6633 16.4385 14.7097 16.1507 14.7286 15.8604C14.7301 15.8317 14.7315 15.8058 14.7315 15.7835L14.7322 15.7533V15.5938C14.7335 14.7981 14.4403 14.03 13.9092 13.4375H19.8325C20.0596 13.4374 20.2846 13.4821 20.4945 13.5689C20.7044 13.6558 20.8951 13.7832 21.0557 13.9437C21.2164 14.1043 21.3438 14.295 21.4308 14.5049C21.5177 14.7147 21.5625 14.9397 21.5625 15.1668C21.5625 15.1668 21.5625 18.4688 16.5312 18.4688Z" fill="currentColor"/>
</svg>
