<svg width="24" height="24" viewBox="0 0 24 24" fill="none" xmlns="http://www.w3.org/2000/svg">
<g clip-path="url(#clip0_6_12720)">
<g clip-path="url(#clip1_6_12720)">
<path d="M15.4888 12.1766C16.5685 12.1766 17.4447 13.0528 17.4447 14.1324V17.7648H17.4403V18.8824H7.38143V15.5295H7.38367V14.1324C7.38367 13.0528 8.25879 12.1766 9.33955 12.1766H15.4888ZM23.5873 14.1324C23.5873 13.6137 23.3813 13.1162 23.0145 12.7494C22.6477 12.3826 22.1502 12.1766 21.6314 12.1766H17.8594C18.2986 12.7074 18.5624 13.3892 18.5624 14.1324V15.5295H18.5579V18.8824H22.7491C22.9714 18.8824 23.1846 18.7941 23.3418 18.6369C23.499 18.4797 23.5873 18.2665 23.5873 18.0442V14.1324ZM6.26379 17.7648H6.26602V14.1324L6.27608 13.8866C6.32433 13.2585 6.56647 12.661 6.96902 12.1766H3.19026L3.02932 12.1833C2.54012 12.2237 2.084 12.4465 1.75149 12.8076C1.41898 13.1687 1.23439 13.6416 1.23438 14.1324V18.0442C1.23438 18.5069 1.6099 18.8824 2.07261 18.8824H6.26379V17.7648ZM12.4108 4.35303C13.3001 4.35303 14.1529 4.70628 14.7817 5.33508C15.4105 5.96388 15.7638 6.81671 15.7638 7.70597C15.7638 8.59522 15.4105 9.44806 14.7817 10.0769C14.1529 10.7057 13.3001 11.0589 12.4108 11.0589C11.5216 11.0589 10.6688 10.7057 10.04 10.0769C9.41116 9.44806 9.0579 8.59522 9.0579 7.70597C9.0579 6.81671 9.41116 5.96388 10.04 5.33508C10.6688 4.70628 11.5216 4.35303 12.4108 4.35303ZM19.6756 5.47067C20.4166 5.47067 21.1273 5.76505 21.6513 6.28905C22.1753 6.81305 22.4697 7.52375 22.4697 8.26479C22.4697 9.00584 22.1753 9.71653 21.6513 10.2405C21.1273 10.7645 20.4166 11.0589 19.6756 11.0589C18.9345 11.0589 18.2238 10.7645 17.6998 10.2405C17.1758 9.71653 16.8814 9.00584 16.8814 8.26479C16.8814 7.52375 17.1758 6.81305 17.6998 6.28905C18.2238 5.76505 18.9345 5.47067 19.6756 5.47067ZM5.14614 5.47067C5.88719 5.47067 6.59788 5.76505 7.12188 6.28905C7.64588 6.81305 7.94026 7.52375 7.94026 8.26479C7.94026 9.00584 7.64588 9.71653 7.12188 10.2405C6.59788 10.7645 5.88719 11.0589 5.14614 11.0589C4.40509 11.0589 3.6944 10.7645 3.1704 10.2405C2.6464 9.71653 2.35202 9.00584 2.35202 8.26479C2.35202 7.52375 2.6464 6.81305 3.1704 6.28905C3.6944 5.76505 4.40509 5.47067 5.14614 5.47067ZM1.23438 20.8383C1.23438 20.616 1.32269 20.4028 1.47989 20.2456C1.63709 20.0884 1.8503 20.0001 2.07261 20.0001H22.7491C22.9714 20.0001 23.1846 20.0884 23.3418 20.2456C23.499 20.4028 23.5873 20.616 23.5873 20.8383V21.3971C23.5873 22.5087 23.1457 23.5748 22.3598 24.3608C21.5738 25.1468 20.5077 25.5883 19.3961 25.5883H5.42555C4.31398 25.5883 3.24794 25.1468 2.46194 24.3608C1.67594 23.5748 1.23438 22.5087 1.23438 21.3971V20.8383Z" fill="currentColor"/>
</g>
</g>
<defs>
<clipPath id="clip0_6_12720">
<rect width="24" height="24" fill="currentColor"/>
</clipPath>
<clipPath id="clip1_6_12720">
<rect width="26.8235" height="19" fill="currentColor" transform="translate(-1 1)"/>
</clipPath>
</defs>
</svg>
