<svg width="24" height="24" viewBox="0 0 24 24" fill="none" xmlns="http://www.w3.org/2000/svg">
<g clip-path="url(#clip0_6_6385)">
<circle cx="12" cy="7.19048" r="4.19048" fill="currentColor"/>
<path d="M19.9612 16.8587C19.9353 16.4854 19.8829 16.0782 19.8058 15.6481C19.728 15.2149 19.6278 14.8053 19.5078 14.4309C19.3839 14.044 19.2153 13.6619 19.007 13.2957C18.7907 12.9157 18.5367 12.5847 18.2517 12.3124C17.9537 12.0275 17.5887 11.7985 17.1668 11.6314C16.7463 11.4652 16.2803 11.381 15.7818 11.381C15.586 11.381 15.3967 11.4613 15.031 11.6991C14.806 11.8457 14.5428 12.0153 14.249 12.2028C13.9978 12.3627 13.6574 12.5125 13.2371 12.6482C12.827 12.7808 12.4106 12.848 11.9996 12.848C11.5886 12.848 11.1723 12.7808 10.7617 12.6482C10.3418 12.5127 10.0015 12.3629 9.75057 12.2029C9.45955 12.0172 9.19619 11.8476 8.96779 11.6989C8.60259 11.4611 8.41312 11.3809 8.21735 11.3809C7.71871 11.3809 7.25285 11.4652 6.83249 11.6315C6.41081 11.7983 6.04576 12.0274 5.74743 12.3126C5.46255 12.585 5.20841 12.9158 4.99245 13.2957C4.78424 13.6619 4.61569 14.0439 4.49161 14.4311C4.37178 14.8054 4.27156 15.2149 4.19372 15.6481C4.11661 16.0776 4.06423 16.485 4.03833 16.8592C4.01288 17.2258 4 17.6063 4 17.9906C4 18.9907 4.31823 19.8003 4.94577 20.3975C5.56556 20.9867 6.38565 21.2856 7.38292 21.2856H16.6171C17.6144 21.2856 18.4341 20.9868 19.0541 20.3975C19.6818 19.8008 20 18.991 20 17.9904C19.9999 17.6044 19.9868 17.2236 19.9612 16.8587Z" fill="currentColor"/>
</g>
<defs>
<clipPath id="clip0_6_6385">
<rect width="24" height="24" fill="white"/>
</clipPath>
</defs>
</svg>
