<svg width="24" height="24" viewBox="0 0 24 24" fill="none" xmlns="http://www.w3.org/2000/svg">
<g clip-path="url(#clip0_6_6397)">
<path d="M21.9812 8.97375L20.85 4.44625C20.7112 3.89 20.2112 3.5 19.6375 3.5H4.36375C3.79 3.5 3.29 3.89 3.15 4.44625L2.01875 8.97375C2.00625 9.0225 2 9.07375 2 9.125C2 10.8475 3.33125 12.25 4.96875 12.25C5.92 12.25 6.76875 11.7763 7.3125 11.0413C7.85625 11.7763 8.705 12.25 9.65625 12.25C10.6075 12.25 11.4562 11.7763 12 11.0413C12.5438 11.7763 13.3912 12.25 14.3438 12.25C15.2963 12.25 16.1437 11.7763 16.6875 11.0413C17.2313 11.7763 18.0787 12.25 19.0312 12.25C20.6687 12.25 22 10.8475 22 9.125C22 9.07375 21.9937 9.0225 21.9812 8.97375Z" fill="currentColor"/>
<path d="M19.0313 13.5001C18.18 13.5001 17.3713 13.2401 16.6875 12.7651C15.32 13.7164 13.3675 13.7164 12 12.7651C10.6325 13.7164 8.68 13.7164 7.3125 12.7651C6.62875 13.2401 5.82 13.5001 4.96875 13.5001C4.355 13.5001 3.77625 13.3564 3.25 13.1114V19.7501C3.25 20.4401 3.81 21.0001 4.5 21.0001H9.5V16.0001H14.5V21.0001H19.5C20.19 21.0001 20.75 20.4401 20.75 19.7501V13.1114C20.2238 13.3564 19.645 13.5001 19.0313 13.5001Z" fill="currentColor"/>
</g>
<defs>
<clipPath id="clip0_6_6397">
<rect width="24" height="24" fill="white"/>
</clipPath>
</defs>
</svg>
