<svg width="16" height="16" viewBox="0 0 16 16" fill="none" xmlns="http://www.w3.org/2000/svg">
<circle cx="8" cy="8" r="8" fill="#F5B22D"/>
<path d="M7.84375 2.15625C8.18229 2.15625 8.46875 2.27604 8.70312 2.51562C8.9375 2.75 9.05469 3.03385 9.05469 3.36719C9.05469 3.70052 8.9349 3.98438 8.69531 4.21875C8.46094 4.45312 8.17708 4.57031 7.84375 4.57031C7.51042 4.57031 7.22656 4.45312 6.99219 4.21875C6.75781 3.98438 6.64062 3.70052 6.64062 3.36719C6.64062 3.03385 6.75781 2.75 6.99219 2.51562C7.22656 2.27604 7.51042 2.15625 7.84375 2.15625ZM8.9375 5.69531V11.4844C8.9375 12 8.9974 12.3307 9.11719 12.4766C9.23698 12.6172 9.47135 12.6979 9.82031 12.7188V13H5.875V12.7188C6.19792 12.7083 6.4375 12.6146 6.59375 12.4375C6.69792 12.3177 6.75 12 6.75 11.4844V7.21875C6.75 6.70312 6.6901 6.375 6.57031 6.23438C6.45052 6.08854 6.21875 6.00521 5.875 5.98438V5.69531H8.9375Z" fill="white"/>
</svg>
