<svg width="24" height="24" viewBox="0 0 24 24" fill="none" xmlns="http://www.w3.org/2000/svg">
<g clip-path="url(#clip0_149_6510)">
<path fill-rule="evenodd" clip-rule="evenodd" d="M0.410711 2.49351L7.07148 0H11.6127H11.6129H16.1541L22.8149 2.49351C25.2369 17.953 16.3562 23.2726 11.6129 24L11.6128 24L11.6127 24C6.86935 23.2726 -2.01135 17.953 0.410711 2.49351ZM6 9.76471C6 9.15828 6.5794 8.66667 7.29412 8.66667H7.83396C7.82612 7.93601 7.9162 7.11128 8.19431 6.35583C8.42084 5.74049 8.78419 5.14026 9.34883 4.69541C9.91971 4.24564 10.6392 4 11.5002 4C12.3543 4 13.0694 4.23388 13.6393 4.66569C14.205 5.09424 14.5723 5.67543 14.802 6.27551C15.1027 7.06107 15.1859 7.92262 15.1633 8.66667H15.7059C16.4206 8.66667 17 9.15828 17 9.76471V16.902C17 17.5084 16.4206 18 15.7059 18H7.29412C6.5794 18 6 17.5084 6 16.902V9.76471ZM13.5327 8.66667C13.5553 8.10265 13.4968 7.46811 13.2945 6.9396C13.1555 6.57665 12.9599 6.2911 12.6993 6.09367C12.443 5.89951 12.0683 5.74818 11.5002 5.74818C10.9391 5.74818 10.5689 5.90316 10.3135 6.1044C10.0518 6.31056 9.85222 6.61174 9.71004 6.99795C9.52174 7.50945 9.45608 8.11292 9.46365 8.66667H13.5327Z" fill="#A1A9B3"/>
</g>
<defs>
<clipPath id="clip0_149_6510">
<rect width="24" height="24" fill="white"/>
</clipPath>
</defs>
</svg>
