<svg width="24" height="24" viewBox="0 0 24 24" fill="none" xmlns="http://www.w3.org/2000/svg">
<g clip-path="url(#clip0_149_6467)">
<path fillRule="evenodd" clipRule="evenodd" d="M20.8939 6.49608C21.8704 6.52033 22.7357 7.16524 23.0402 8.09623C23.071 8.18871 23.0969 8.27877 23.1231 8.36983C23.134 8.40768 23.1449 8.4457 23.1562 8.48415V11.1511V12.7027V15.0302V16.5819V19.2488C23.1521 19.2601 23.148 19.2713 23.144 19.2823C23.1289 19.323 23.1145 19.362 23.1031 19.4039C22.8904 20.2622 22.3683 20.8392 21.5369 21.1302C21.416 21.169 21.2952 21.2029 21.1743 21.2368H3.48193C3.47061 21.2327 3.45951 21.2286 3.44854 21.2245C3.40796 21.2094 3.3691 21.195 3.32725 21.1835C2.48613 20.9702 1.91089 20.4562 1.61602 19.6367C1.58575 19.549 1.56017 19.459 1.53438 19.3682C1.5231 19.3285 1.51177 19.2886 1.5 19.2488V8.48415C1.50418 8.47436 1.50876 8.46458 1.5134 8.45468C1.52484 8.43023 1.53662 8.40508 1.54351 8.37747C1.76587 7.36404 2.50063 6.67549 3.52061 6.51548L3.52061 6.51548C3.65596 6.49608 3.79131 6.47669 3.92183 6.44274C6.57568 5.72995 9.22954 5.01716 11.8786 4.29951C13.4931 3.86311 15.1077 3.43156 16.7222 3H17.3023C17.3095 3.00364 17.3168 3.00758 17.324 3.01152C17.3458 3.02334 17.3676 3.03515 17.3893 3.03879C18.3561 3.2376 18.9749 3.81462 19.2456 4.76501C19.3954 5.28385 19.5356 5.80753 19.6661 6.33122C19.6951 6.46214 19.7531 6.50093 19.8788 6.49608C20.2172 6.49123 20.5556 6.48638 20.8939 6.49608ZM11.8157 5.92876L9.87246 6.45244C9.87407 6.45567 9.87568 6.45837 9.8773 6.46106C9.88052 6.46645 9.88374 6.47184 9.88696 6.48153H18.0999C18.0665 6.35352 18.0341 6.22725 18.0019 6.10233C17.9269 5.81087 17.8539 5.52678 17.776 5.24506C17.6213 4.67773 17.2491 4.46923 16.6787 4.61954C15.869 4.83775 15.0581 5.05595 14.2472 5.27415C13.4363 5.49235 12.6254 5.71055 11.8157 5.92876ZM7.95801 14.2942L10.5781 17.8175H12.8984L9.76763 13.7486L12.7874 9.83887H10.5559L7.95801 13.3395V9.83887H6.05957V17.8175H7.95801V14.2942Z" fill="#A1A9B3"/>
</g>
<defs>
<clipPath id="clip0_149_6467">
<rect width="24" height="24" fill="white"/>
</clipPath>
</defs>
</svg>
