<svg width="24" height="14" viewBox="0 0 24 14" fill="none" xmlns="http://www.w3.org/2000/svg">
<path fill-rule="evenodd" clip-rule="evenodd" d="M9.54687 4.36377C7.89002 4.36377 6.54688 5.70692 6.54688 7.36377V10.8183C6.54688 12.4751 7.89002 13.8183 9.54687 13.8183H19.5468C21.2037 13.8183 22.5468 12.4751 22.5468 10.8183V7.36377C22.5468 7.00193 22.4828 6.65505 22.3654 6.33386C22.7813 6.07336 23.2113 5.77548 23.5997 5.45468C24.6563 4.58195 23.3796 4.36377 22.6092 4.36377H19.6375L19.638 4.36513C19.6077 4.36422 19.5773 4.36377 19.5468 4.36377H9.54687ZM8.72861 7.27285H20.3649V8.00012H8.72861V7.27285ZM20.3649 10.1819H8.72861V10.9092H20.3649V10.1819Z" fill="#A1A9B3"/>
<path fill-rule="evenodd" clip-rule="evenodd" d="M17.4545 3C17.4545 1.34315 16.1114 0 14.4545 0H4.45457C4.42399 0 4.39351 0.000457534 4.36315 0.00136613L4.36362 0H1.39198C0.62156 0 -0.655142 0.21818 0.401439 1.0909C0.789895 1.41176 1.22 1.70968 1.63598 1.97021C1.51861 2.29137 1.45457 2.63821 1.45457 3V6.45451C1.45457 8.11136 2.79771 9.45451 4.45457 9.45451H5.81837V6.63635C5.81837 4.9795 7.16151 3.63635 8.81837 3.63635H17.4545V3ZM17.4532 6.54543H8.00041V7.2727H17.3416C17.4072 7.04049 17.4457 6.79685 17.4532 6.54543Z" fill="#A1A9B3"/>
</svg>
