<svg width="24" height="24" viewBox="0 0 24 24" fill="none" xmlns="http://www.w3.org/2000/svg">
<g clip-path="url(#clip0_149_6521)">
<g clip-path="url(#clip1_149_6521)">
<path fillRule="evenodd" clipRule="evenodd" d="M9.54687 10.3638C7.89002 10.3638 6.54688 11.7069 6.54688 13.3638V16.8183C6.54688 18.4751 7.89002 19.8183 9.54687 19.8183H19.5468C21.2037 19.8183 22.5468 18.4751 22.5468 16.8183V13.3638C22.5468 13.0019 22.4828 12.6551 22.3654 12.3339C22.7813 12.0734 23.2113 11.7755 23.5997 11.4547C24.6563 10.582 23.3796 10.3638 22.6092 10.3638H19.6375L19.638 10.3651C19.6077 10.3642 19.5773 10.3638 19.5468 10.3638H9.54687ZM8.72861 13.2728H20.3649V14.0001H8.72861V13.2728ZM20.3649 16.1819H8.72861V16.9092H20.3649V16.1819Z" fill="#A1A9B3"/>
<path fillRule="evenodd" clipRule="evenodd" d="M17.4545 9C17.4545 7.34315 16.1114 6 14.4545 6H4.45457C4.42399 6 4.39351 6.00046 4.36315 6.00137L4.36362 6H1.39198C0.62156 6 -0.655142 6.21818 0.401439 7.0909C0.789895 7.41176 1.22 7.70968 1.63598 7.97021C1.51861 8.29137 1.45457 8.63821 1.45457 9V12.4545C1.45457 14.1114 2.79771 15.4545 4.45457 15.4545H5.81837V12.6363C5.81837 10.9795 7.16151 9.63635 8.81837 9.63635H17.4545V9ZM17.4532 12.5454H8.00041V13.2727H17.3416C17.4072 13.0405 17.4457 12.7968 17.4532 12.5454Z" fill="#A1A9B3"/>
</g>
</g>
<defs>
<clipPath id="clip0_149_6521">
<rect width="24" height="24" fill="white"/>
</clipPath>
<clipPath id="clip1_149_6521">
<rect width="24" height="24" fill="white" transform="translate(24 24) rotate(180)"/>
</clipPath>
</defs>
</svg>
