<svg width="24" height="24" viewBox="0 0 24 24" fill="none" xmlns="http://www.w3.org/2000/svg">
<path d="M2 6C2 4.89543 2.89543 4 4 4H13C14.1046 4 15 4.89543 15 6V15H2V6Z" fill="#A1A9B3"/>
<path fillRule="evenodd" clipRule="evenodd" d="M2 15H17.7995C16.2531 15 14.9995 16.2536 14.9995 17.8C14.9995 17.8672 15.0019 17.9339 15.0065 18H8.85926C8.8596 17.9822 8.85977 17.9644 8.85977 17.9465C8.85977 16.4001 7.60616 15.1465 6.05977 15.1465C4.51337 15.1465 3.25977 16.4001 3.25977 17.9465C3.25977 17.9644 3.25993 17.9822 3.26027 18H2V15ZM17.7995 15H22V17C22 17.5523 21.5523 18 21 18H20.5925C20.5971 17.9339 20.5995 17.8672 20.5995 17.8C20.5995 16.2536 19.3459 15 17.7995 15Z" fill="#A1A9B3"/>
<path fillRule="evenodd" clipRule="evenodd" d="M20 9H16V15H22V11C22 9.89543 21.1046 9 20 9ZM19.5 10H18V13H21V11.5C21 10.6716 20.3284 10 19.5 10Z" fill="#A1A9B3"/>
<circle cx="6" cy="18" r="2" fill="#A1A9B3"/>
<circle cx="17.7719" cy="17.8998" r="2.1" fill="#A1A9B3"/>
</svg>
