<svg width="99" height="99" viewBox="0 0 99 99" fill="none" xmlns="http://www.w3.org/2000/svg">
<path d="M94.875 16.4998V24.7498H82.5V37.1248H74.25V24.7498H61.875V16.4998H74.25V4.12476H82.5V16.4998H94.875ZM59.8125 45.3748C61.4541 45.3742 63.0282 44.7216 64.1886 43.5604C65.349 42.3993 66.0005 40.8247 66 39.1831C65.9995 37.5416 65.3468 35.9674 64.1857 34.8071C63.0245 33.6467 61.4499 32.9951 59.8084 32.9956C58.9955 32.9959 58.1907 33.1563 57.4399 33.4676C56.689 33.7789 56.0069 34.235 55.4323 34.81C54.8577 35.3849 54.402 36.0674 54.0912 36.8185C53.7804 37.5695 53.6206 38.3744 53.6209 39.1873C53.6211 40.0001 53.7815 40.8049 54.0928 41.5557C54.4041 42.3066 54.8603 42.9888 55.4352 43.5633C56.0102 44.1379 56.6926 44.5936 57.4437 44.9044C58.1948 45.2152 58.9997 45.375 59.8125 45.3748ZM74.25 58.715L72.1339 56.3638C71.3602 55.5023 70.4138 54.8133 69.3563 54.3416C68.2988 53.87 67.1538 53.6262 65.9959 53.6262C64.8379 53.6262 63.693 53.87 62.6355 54.3416C61.578 54.8133 60.6316 55.5023 59.8579 56.3638L57.1519 59.3791L37.125 37.1248L24.75 50.8734V24.7498H53.625V16.4998H24.75C22.562 16.4998 20.4635 17.3689 18.9164 18.9161C17.3692 20.4633 16.5 22.5617 16.5 24.7498V74.2498C16.5 76.4378 17.3692 78.5362 18.9164 80.0834C20.4635 81.6306 22.562 82.4998 24.75 82.4998H74.25C76.438 82.4998 78.5365 81.6306 80.0836 80.0834C81.6308 78.5362 82.5 76.4378 82.5 74.2498V45.3748H74.25V58.715Z" fill="#CED2D9"/>
</svg>
