<svg width="20" height="21" viewBox="0 0 20 21" fill="none" xmlns="http://www.w3.org/2000/svg">
<path fillRule="evenodd" clipRule="evenodd" d="M10.7073 13.9284L15.7072 8.92844C15.9022 8.73344 16.0002 8.47744 16.0002 8.22144C16.0002 7.96544 15.9022 7.70944 15.7072 7.51444C15.3162 7.12344 14.6842 7.12344 14.2933 7.51444L10.0003 11.8074L5.70725 7.51444C5.31625 7.12344 4.68425 7.12344 4.29325 7.51444C3.90225 7.90544 3.90225 8.53744 4.29325 8.92844L9.29325 13.9284C9.68425 14.3194 10.3163 14.3194 10.7073 13.9284Z" fill="#42454D"/>
<mask id="mask0_6_11957" style="mask-type:alpha" maskUnits="userSpaceOnUse" x="4" y="7" width="12" height="8">
<path fillRule="evenodd" clipRule="evenodd" d="M10.7073 13.9284L15.7072 8.92844C15.9022 8.73344 16.0002 8.47744 16.0002 8.22144C16.0002 7.96544 15.9022 7.70944 15.7072 7.51444C15.3162 7.12344 14.6842 7.12344 14.2933 7.51444L10.0003 11.8074L5.70725 7.51444C5.31625 7.12344 4.68425 7.12344 4.29325 7.51444C3.90225 7.90544 3.90225 8.53744 4.29325 8.92844L9.29325 13.9284C9.68425 14.3194 10.3163 14.3194 10.7073 13.9284Z" fill="white"/>
</mask>
<g mask="url(#mask0_6_11957)">
</g>
</svg>
