   <svg
          width="16"
          height="16"
          viewBox="0 0 16 16"
          fill="none"
          xmlns="http://www.w3.org/2000/svg"
        >
          <path
            fillRule="evenodd"
            clipRule="evenodd"
            d="M6.80001 10.4C4.81521 10.4 3.20001 8.78478 3.20001 6.79998C3.20001 4.81518 4.81521 3.19998 6.80001 3.19998C8.78481 3.19998 10.4 4.81518 10.4 6.79998C10.4 8.78478 8.78481 10.4 6.80001 10.4ZM14.1656 13.0344L10.9936 9.86238C11.6232 9.00157 12 7.94558 12 6.79998C12 3.93278 9.66721 1.59998 6.80001 1.59998C3.93281 1.59998 1.60001 3.93278 1.60001 6.79998C1.60001 9.66718 3.93281 12 6.80001 12C7.94561 12 9.00161 11.6232 9.86241 10.9936L13.0344 14.1656C13.1904 14.3216 13.3952 14.4 13.6 14.4C13.8048 14.4 14.0096 14.3216 14.1656 14.1656C14.4784 13.8528 14.4784 13.3472 14.1656 13.0344Z"
            fill="#484E5C"
          />
          <mask
            id="mask0_60_10065"
            style="mask-type:alpha"
            maskUnits="userSpaceOnUse"
            x="1"
            y="1"
            width="14"
            height="14"
          >
            <path
              fillRule="evenodd"
              clipRule="evenodd"
              d="M6.80001 10.4C4.81521 10.4 3.20001 8.78478 3.20001 6.79998C3.20001 4.81518 4.81521 3.19998 6.80001 3.19998C8.78481 3.19998 10.4 4.81518 10.4 6.79998C10.4 8.78478 8.78481 10.4 6.80001 10.4ZM14.1656 13.0344L10.9936 9.86238C11.6232 9.00157 12 7.94558 12 6.79998C12 3.93278 9.66721 1.59998 6.80001 1.59998C3.93281 1.59998 1.60001 3.93278 1.60001 6.79998C1.60001 9.66718 3.93281 12 6.80001 12C7.94561 12 9.00161 11.6232 9.86241 10.9936L13.0344 14.1656C13.1904 14.3216 13.3952 14.4 13.6 14.4C13.8048 14.4 14.0096 14.3216 14.1656 14.1656C14.4784 13.8528 14.4784 13.3472 14.1656 13.0344Z"
              fill="white"
            />
          </mask>
          <g mask="url(#mask0_60_10065)"></g>
        </svg>