<svg width="24" height="24" viewBox="0 0 24 24" fill="none" xmlns="http://www.w3.org/2000/svg">
<g clip-path="url(#clip0_149_6476)">
<path fillRule="evenodd" clipRule="evenodd" d="M8 2H5C3.89543 2 3 2.89543 3 4V20C3 21.1046 3.89543 22 5 22H19C20.1046 22 21 21.1046 21 20V4C21 2.89543 20.1046 2 19 2H16V4C16 4.55228 15.5523 5 15 5H9C8.44772 5 8 4.55228 8 4V2ZM6.5 8C6.22386 8 6 8.22386 6 8.5C6 8.77614 6.22386 9 6.5 9H17.5C17.7761 9 18 8.77614 18 8.5C18 8.22386 17.7761 8 17.5 8H6.5ZM6 11.5C6 11.2239 6.22386 11 6.5 11H17.5C17.7761 11 18 11.2239 18 11.5C18 11.7761 17.7761 12 17.5 12H6.5C6.22386 12 6 11.7761 6 11.5ZM6.5 14C6.22386 14 6 14.2239 6 14.5C6 14.7761 6.22386 15 6.5 15H17.5C17.7761 15 18 14.7761 18 14.5C18 14.2239 17.7761 14 17.5 14H6.5ZM6 17.5C6 17.2239 6.22386 17 6.5 17H17.5C17.7761 17 18 17.2239 18 17.5C18 17.7761 17.7761 18 17.5 18H6.5C6.22386 18 6 17.7761 6 17.5Z" fill="#A1A9B3"/>
<rect x="9" y="1" width="6" height="3" rx="1" fill="#A1A9B3"/>
</g>
<defs>
<clipPath id="clip0_149_6476">
<rect width="24" height="24" fill="white"/>
</clipPath>
</defs>
</svg>
