<svg width="24" height="24" viewBox="0 0 24 24" fill="none" xmlns="http://www.w3.org/2000/svg">
<path fill-rule="evenodd" clip-rule="evenodd" d="M7 12C7 10.896 6.104 10 5 10C3.896 10 3 10.896 3 12C3 13.104 3.896 14 5 14C6.104 14 7 13.104 7 12ZM14 12C14 10.896 13.104 10 12 10C10.896 10 10 10.896 10 12C10 13.104 10.896 14 12 14C13.104 14 14 13.104 14 12ZM19 14C17.896 14 17 13.104 17 12C17 10.896 17.896 10 19 10C20.104 10 21 10.896 21 12C21 13.104 20.104 14 19 14Z" fill="#232C44"/>
<mask id="mask0_440_2409" style="mask-type:alpha" maskUnits="userSpaceOnUse" x="3" y="10" width="18" height="4">
<path fill-rule="evenodd" clip-rule="evenodd" d="M7 12C7 10.896 6.104 10 5 10C3.896 10 3 10.896 3 12C3 13.104 3.896 14 5 14C6.104 14 7 13.104 7 12ZM14 12C14 10.896 13.104 10 12 10C10.896 10 10 10.896 10 12C10 13.104 10.896 14 12 14C13.104 14 14 13.104 14 12ZM19 14C17.896 14 17 13.104 17 12C17 10.896 17.896 10 19 10C20.104 10 21 10.896 21 12C21 13.104 20.104 14 19 14Z" fill="white"/>
</mask>
<g mask="url(#mask0_440_2409)">
</g>
</svg>
